HIERARCHY
ROOT Hips
{
	OFFSET 0.000000 71.427986 0.000000
	CHANNELS 6 Xposition Yposition Zposition Xrotation Yrotation Zrotation
	JOINT Pelvis
	{
		OFFSET 0.000000 0.000000 0.000000
		CHANNELS 3 Xrotation Yrotation Zrotation
		JOINT LeftUpLeg
		{
			OFFSET 6.797100 -2.508499 -1.318700
			CHANNELS 3 Xrotation Yrotation Zrotation
			JOINT LeftLeg
			{
				OFFSET 0.069008 -29.241863 0.690200
				CHANNELS 3 Xrotation Yrotation Zrotation
				JOINT LeftFoot
				{
					OFFSET -0.069008 -29.568123 -0.266800
					CHANNELS 3 Xrotation Yrotation Zrotation
					JOINT LeftToeBase
					{
						OFFSET 3.145500 -8.631000 16.059900
						CHANNELS 3 Xrotation Yrotation Zrotation
						End Site
						{
							OFFSET 0.000000 18.501587 0.000000
						}
					}
				}
			}
			JOINT Left_ShortSleeve
			{
				OFFSET 0.265923 -10.480953 1.153800
				CHANNELS 3 Xrotation Yrotation Zrotation
				End Site
				{
					OFFSET 1.725763 19.823879 0.000000
				}
			}
		}
		JOINT RightUpLeg
		{
			OFFSET -6.797100 -2.508499 -1.318700
			CHANNELS 3 Xrotation Yrotation Zrotation
			JOINT RightLeg
			{
				OFFSET -0.082453 -29.241932 0.688000
				CHANNELS 3 Xrotation Yrotation Zrotation
				JOINT RightFoot
				{
					OFFSET 0.082453 -29.568058 -0.264600
					CHANNELS 3 Xrotation Yrotation Zrotation
					JOINT RightToeBase
					{
						OFFSET -3.115300 -8.682800 16.113400
						CHANNELS 3 Xrotation Yrotation Zrotation
						End Site
						{
							OFFSET 0.000000 18.567114 0.000000
						}
					}
				}
			}
			JOINT Right_ShortSleeve
			{
				OFFSET -0.265923 -10.480953 1.153800
				CHANNELS 3 Xrotation Yrotation Zrotation
				End Site
				{
					OFFSET -1.725766 19.823910 0.000000
				}
			}
		}
	}
	JOINT Spine
	{
		OFFSET 0.000000 13.368103 0.470500
		CHANNELS 3 Xrotation Yrotation Zrotation
		JOINT Spine1
		{
			OFFSET 0.147000 13.837402 0.538800
			CHANNELS 3 Xrotation Yrotation Zrotation
			JOINT Spine2
			{
				OFFSET 0.168000 16.242897 -1.435500
				CHANNELS 3 Xrotation Yrotation Zrotation
				JOINT Neck
				{
					OFFSET 0.217200 18.631500 -1.679100
					CHANNELS 3 Xrotation Yrotation Zrotation
					JOINT Head
					{
						OFFSET 0.000000 6.599396 1.385900
						CHANNELS 3 Xrotation Yrotation Zrotation
						JOINT Hat
						{
							OFFSET -0.532200 27.220596 -10.096100
							CHANNELS 3 Xrotation Yrotation Zrotation
							End Site
							{
								OFFSET 0.000000 22.029861 0.000000
							}
						}
						JOINT HairD
						{
							OFFSET -10.777400 17.437393 -1.325900
							CHANNELS 3 Xrotation Yrotation Zrotation
							JOINT HairD1
							{
								OFFSET -3.290299 -11.051193 1.062200
								CHANNELS 3 Xrotation Yrotation Zrotation
								End Site
								{
									OFFSET 0.000000 11.579437 0.000000
								}
							}
						}
						JOINT HairB
						{
							OFFSET -10.777400 17.437393 1.467900
							CHANNELS 3 Xrotation Yrotation Zrotation
							JOINT HairB1
							{
								OFFSET -1.561200 -12.956299 3.590200
								CHANNELS 3 Xrotation Yrotation Zrotation
								End Site
								{
									OFFSET 0.000000 13.534866 0.000000
								}
							}
						}
						JOINT HairA
						{
							OFFSET 9.713100 17.437393 1.467900
							CHANNELS 3 Xrotation Yrotation Zrotation
							JOINT HairA1
							{
								OFFSET 1.561200 -12.956299 3.590200
								CHANNELS 3 Xrotation Yrotation Zrotation
								End Site
								{
									OFFSET 0.000000 13.534866 0.000000
								}
							}
						}
						JOINT HairC
						{
							OFFSET 9.713100 17.437393 -1.325900
							CHANNELS 3 Xrotation Yrotation Zrotation
							JOINT HairC1
							{
								OFFSET 3.290300 -11.051193 1.062200
								CHANNELS 3 Xrotation Yrotation Zrotation
								End Site
								{
									OFFSET 0.000000 11.579437 0.000000
								}
							}
						}
					}
				}
				JOINT LeftShoulder
				{
					OFFSET 5.101800 15.108002 -2.763700
					CHANNELS 3 Xrotation Yrotation Zrotation
					JOINT LeftArm
					{
						OFFSET 9.825497 2.506317 -1.597400
						CHANNELS 3 Xrotation Yrotation Zrotation
						JOINT LeftForeArm
						{
							OFFSET 21.966244 0.000000 0.000000
							CHANNELS 3 Xrotation Yrotation Zrotation
							JOINT LeftHand
							{
								OFFSET 33.879036 0.000000 0.000000
								CHANNELS 3 Xrotation Yrotation Zrotation
								JOINT LeftHandThumb1
								{
									OFFSET 6.715286 -2.359680 3.363841
									CHANNELS 3 Xrotation Yrotation Zrotation
									JOINT LeftHandThumb2
									{
										OFFSET 2.507072 -1.447464 1.447461
										CHANNELS 3 Xrotation Yrotation Zrotation
										JOINT LeftHandThumb3
										{
											OFFSET 2.898338 -1.673355 1.673357
											CHANNELS 3 Xrotation Yrotation Zrotation
											End Site
											{
												OFFSET -0.295959 3.727692 -0.131651
											}
										}
									}
								}
								JOINT LeftHandIndex1
								{
									OFFSET 14.190811 -0.254547 3.840278
									CHANNELS 3 Xrotation Yrotation Zrotation
									JOINT LeftHandIndex2
									{
										OFFSET 3.551727 0.000000 -0.000000
										CHANNELS 3 Xrotation Yrotation Zrotation
										JOINT LeftHandIndex3
										{
											OFFSET 2.894196 0.000000 0.000000
											CHANNELS 3 Xrotation Yrotation Zrotation
											End Site
											{
												OFFSET -1.000603 2.690872 0.366626
											}
										}
									}
								}
								JOINT LeftHandMiddle1
								{
									OFFSET 13.776489 0.000000 0.000000
									CHANNELS 3 Xrotation Yrotation Zrotation
									JOINT LeftHandMiddle2
									{
										OFFSET 3.438232 0.000000 0.000000
										CHANNELS 3 Xrotation Yrotation Zrotation
										JOINT LeftHandMiddle3
										{
											OFFSET 3.691551 0.000000 0.000000
											CHANNELS 3 Xrotation Yrotation Zrotation
											End Site
											{
												OFFSET -1.082298 3.499527 0.457670
											}
										}
									}
								}
								JOINT LeftHandRing1
								{
									OFFSET 13.966164 -0.268127 -3.067488
									CHANNELS 3 Xrotation Yrotation Zrotation
									JOINT LeftHandRing2
									{
										OFFSET 3.162567 0.000000 0.000000
										CHANNELS 3 Xrotation Yrotation Zrotation
										JOINT LeftHandRing3
										{
											OFFSET 3.324348 0.000000 0.000000
											CHANNELS 3 Xrotation Yrotation Zrotation
											End Site
											{
												OFFSET -0.861900 3.184998 0.405154
											}
										}
									}
								}
								JOINT LeftHandPinky1
								{
									OFFSET 13.131393 -0.168503 -5.746925
									CHANNELS 3 Xrotation Yrotation Zrotation
									JOINT LeftHandPinky2
									{
										OFFSET 2.849182 0.000000 0.000000
										CHANNELS 3 Xrotation Yrotation Zrotation
										JOINT LeftHandPinky3
										{
											OFFSET 2.805038 0.000000 0.000000
											CHANNELS 3 Xrotation Yrotation Zrotation
											End Site
											{
												OFFSET -0.882500 2.642609 0.325652
											}
										}
									}
								}
							}
							JOINT Left_Sleeve
							{
								OFFSET 6.592125 -0.646545 0.805568
								CHANNELS 3 Xrotation Yrotation Zrotation
								End Site
								{
									OFFSET -0.000179 20.275787 -0.000000
								}
							}
						}
					}
				}
				JOINT RightShoulder
				{
					OFFSET -5.731700 15.108002 -2.763700
					CHANNELS 3 Xrotation Yrotation Zrotation
					JOINT RightArm
					{
						OFFSET -9.825497 2.506317 -1.597400
						CHANNELS 3 Xrotation Yrotation Zrotation
						JOINT RightForeArm
						{
							OFFSET -21.966242 0.000000 0.000000
							CHANNELS 3 Xrotation Yrotation Zrotation
							JOINT RightHand
							{
								OFFSET -33.879032 0.000000 0.000000
								CHANNELS 3 Xrotation Yrotation Zrotation
								JOINT RightHandThumb1
								{
									OFFSET -6.715286 -2.359680 3.363841
									CHANNELS 3 Xrotation Yrotation Zrotation
									JOINT RightHandThumb2
									{
										OFFSET -2.507072 -1.447464 1.447461
										CHANNELS 3 Xrotation Yrotation Zrotation
										JOINT RightHandThumb3
										{
											OFFSET -2.898338 -1.673355 1.673357
											CHANNELS 3 Xrotation Yrotation Zrotation
											End Site
											{
												OFFSET 0.295959 3.727692 -0.131651
											}
										}
									}
								}
								JOINT RightHandIndex1
								{
									OFFSET -14.190811 -0.254547 3.840278
									CHANNELS 3 Xrotation Yrotation Zrotation
									JOINT RightHandIndex2
									{
										OFFSET -3.551727 0.000000 -0.000000
										CHANNELS 3 Xrotation Yrotation Zrotation
										JOINT RightHandIndex3
										{
											OFFSET -2.894196 0.000000 0.000000
											CHANNELS 3 Xrotation Yrotation Zrotation
											End Site
											{
												OFFSET 1.000603 2.690872 0.366626
											}
										}
									}
								}
								JOINT RightHandMiddle1
								{
									OFFSET -13.776489 0.000000 0.000000
									CHANNELS 3 Xrotation Yrotation Zrotation
									JOINT RightHandMiddle2
									{
										OFFSET -3.438232 0.000000 0.000000
										CHANNELS 3 Xrotation Yrotation Zrotation
										JOINT RightHandMiddle3
										{
											OFFSET -3.691551 0.000000 0.000000
											CHANNELS 3 Xrotation Yrotation Zrotation
											End Site
											{
												OFFSET 1.082298 3.499527 0.457670
											}
										}
									}
								}
								JOINT RightHandRing1
								{
									OFFSET -13.966164 -0.268127 -3.067488
									CHANNELS 3 Xrotation Yrotation Zrotation
									JOINT RightHandRing2
									{
										OFFSET -3.162567 0.000000 0.000000
										CHANNELS 3 Xrotation Yrotation Zrotation
										JOINT RightHandRing3
										{
											OFFSET -3.324348 0.000000 0.000000
											CHANNELS 3 Xrotation Yrotation Zrotation
											End Site
											{
												OFFSET 0.861900 3.184998 0.405154
											}
										}
									}
								}
								JOINT RightHandPinky1
								{
									OFFSET -13.131393 -0.168503 -5.746925
									CHANNELS 3 Xrotation Yrotation Zrotation
									JOINT RightHandPinky2
									{
										OFFSET -2.849182 0.000000 0.000000
										CHANNELS 3 Xrotation Yrotation Zrotation
										JOINT RightHandPinky3
										{
											OFFSET -2.805038 0.000000 0.000000
											CHANNELS 3 Xrotation Yrotation Zrotation
											End Site
											{
												OFFSET 0.882500 2.642609 0.325652
											}
										}
									}
								}
							}
							JOINT Right_Sleeve
							{
								OFFSET -6.592125 -0.646545 0.805568
								CHANNELS 3 Xrotation Yrotation Zrotation
								End Site
								{
									OFFSET 0.000179 20.275787 -0.000000
								}
							}
						}
					}
				}
				JOINT Bind_Right_JacketString
				{
					OFFSET -3.534800 11.969597 7.200700
					CHANNELS 3 Xrotation Yrotation Zrotation
					JOINT Bind_Right_JacketString1
					{
						OFFSET -0.319900 -6.102600 2.794100
						CHANNELS 3 Xrotation Yrotation Zrotation
						End Site
						{
							OFFSET 0.000000 6.719452 0.000000
						}
					}
				}
				JOINT Bind_Left_JacketString
				{
					OFFSET 2.904800 11.969597 7.200700
					CHANNELS 3 Xrotation Yrotation Zrotation
					JOINT Bind_Left_JacketString1
					{
						OFFSET 0.364800 -5.904503 3.186800
						CHANNELS 3 Xrotation Yrotation Zrotation
						End Site
						{
							OFFSET 0.000000 6.719513 0.000000
						}
					}
				}
				JOINT HairE
				{
					OFFSET 5.915200 17.612701 -11.592200
					CHANNELS 3 Xrotation Yrotation Zrotation
					JOINT HairE1
					{
						OFFSET 0.289200 -7.171898 -1.284500
						CHANNELS 3 Xrotation Yrotation Zrotation
						End Site
						{
							OFFSET 0.000000 7.291756 0.000000
						}
					}
				}
				JOINT HairF
				{
					OFFSET -0.864800 17.612701 -11.592200
					CHANNELS 3 Xrotation Yrotation Zrotation
					JOINT HairF1
					{
						OFFSET 0.000000 -14.087097 -2.127501
						CHANNELS 3 Xrotation Yrotation Zrotation
						End Site
						{
							OFFSET 0.000000 14.246841 0.000000
						}
					}
				}
				JOINT HairG
				{
					OFFSET -8.087700 17.612701 -11.592200
					CHANNELS 3 Xrotation Yrotation Zrotation
					JOINT HairG1
					{
						OFFSET -0.293600 -6.081398 -0.910100
						CHANNELS 3 Xrotation Yrotation Zrotation
						End Site
						{
							OFFSET 0.000000 6.156120 0.000000
						}
					}
				}
			}
		}
	}
	JOINT Pouch
	{
		OFFSET 0.000000 4.394501 10.847300
		CHANNELS 3 Xrotation Yrotation Zrotation
		End Site
		{
			OFFSET 0.000000 21.880577 0.000000
		}
	}
	JOINT Bag
	{
		OFFSET -13.229000 4.813004 -0.593300
		CHANNELS 3 Xrotation Yrotation Zrotation
		End Site
		{
			OFFSET 0.000000 21.880577 0.000000
		}
	}
	JOINT OccupyGuyFacialAnim_Joint
	{
		OFFSET 1.000000 -70.206398 -1.655000
		CHANNELS 3 Xrotation Yrotation Zrotation
		End Site
		{
			OFFSET 0.000000 21.880577 0.000000
		}
	}
}
MOTION
Frames: 4
Frame Time: 0.033333
-0.496936 60.469688 0.364141 15.500780 -53.415563 11.678748 -0.000000 0.000000 -0.000000 -65.819623 26.153134 42.771683 46.265219 -14.931825 4.318113 0.664107 0.551989 -9.994238 -0.000000 -0.000000 0.000000 -0.000002 0.000000 -0.000000 -33.703961 -20.428667 -35.288579 42.297828 -0.659115 -5.458455 -13.837331 -5.333466 30.444619 -0.000000 -0.000000 0.000000 -0.000000 0.000001 -0.000002 7.406308 3.464109 -3.063066 1.209179 1.420668 2.325056 0.209260 1.298847 1.049732 -1.852112 9.789338 -1.570085 -3.710345 23.673092 -4.987623 0.000000 0.000000 -0.000000 0.000000 0.000000 -0.000000 0.000000 0.000000 -0.000000 0.000000 0.000000 -0.000000 0.000000 0.000002 -0.000000 0.000000 0.000000 -0.000000 0.000000 0.000002 -0.000000 0.000000 0.000000 -0.000000 0.000000 0.000000 -0.000000 -2.416902 -9.914493 -4.105213 -4.668984 -14.995277 -46.826944 -96.667988 -58.172830 -94.771682 0.027024 -0.377061 -3.261903 4.766484 -0.870676 -14.442464 15.732323 12.674831 8.828583 -0.000000 0.000001 -0.000001 -3.610955 -7.817589 -81.262661 0.005173 -4.388533 -67.459081 0.000001 0.000000 -0.000002 -5.483669 2.419552 -86.651031 -0.068362 -4.897286 -76.605503 0.000001 -0.000001 0.000002 -4.480815 3.914144 -90.412512 -1.097244 -0.675670 -62.310723 -0.000002 -0.000000 -0.000004 -8.868642 8.263650 -85.753872 -0.047916 -0.066877 -74.105647 -0.000001 0.000001 -0.000001 0.000000 -0.000000 -0.000000 -7.387811 -19.317450 2.804094 3.089077 2.300726 51.805110 -16.213829 73.879411 16.738403 -2.716587 27.655238 10.524481 24.918338 -21.323378 30.343044 9.041919 8.262092 -18.001802 -0.000002 -0.000002 0.000002 -0.070693 -3.035227 61.424205 0.006470 4.395159 66.609193 -0.000002 -0.000001 0.000004 -1.235391 -0.119479 68.274270 -0.077304 4.902846 84.501891 0.000002 -0.000001 0.000001 0.883158 -4.613433 79.192949 -0.717761 1.136483 73.255780 -0.000002 -0.000000 -0.000001 -3.944537 0.099983 86.764774 -0.029795 0.060129 54.415144 -0.000003 0.000002 -0.000001 0.000005 0.000001 0.000003 -0.000001 -0.000002 -0.000000 0.000000 0.000001 -0.000001 -0.000001 -0.000002 0.000001 -0.000001 -0.000002 0.000001 -0.000001 -0.000002 -0.000000 0.000000 0.000001 -0.000000 -0.000001 -0.000002 0.000001 -0.000001 -0.000002 0.000001 -0.000001 -0.000002 -0.000000 0.000000 0.000001 -0.000000 -0.000000 0.000000 -0.000000 -0.000000 0.000000 -0.000000 -0.000000 0.000000 -0.000000 
-0.521163 60.662300 0.332087 14.670201 -53.151962 11.838196 -0.000000 0.000000 -0.000000 -64.564590 27.397738 41.836582 44.997915 -15.094088 4.339091 1.189084 0.526462 -10.042316 -0.000000 0.000002 0.000000 0.000001 0.000001 0.000000 -33.288436 -20.263576 -36.151822 41.943683 -0.768780 -5.259273 -13.723191 -5.303834 30.380961 -0.000000 0.000000 -0.000000 -0.000000 0.000000 -0.000003 7.336476 3.314837 -3.040371 1.044229 1.306420 1.541602 0.271879 1.215139 0.559389 -1.707650 9.094333 -0.992069 -4.079084 21.035536 -3.734258 -0.000001 -0.000001 -0.000000 -0.000001 -0.000001 -0.000000 -0.000001 -0.000001 -0.000000 -0.000001 -0.000001 -0.000000 -0.000001 -0.000001 0.000000 -0.000001 -0.000001 -0.000000 -0.000001 -0.000001 0.000000 -0.000001 -0.000001 -0.000000 -0.000001 -0.000001 -0.000000 -1.998115 -8.143074 -6.999626 -11.203039 -4.390318 -42.071879 -81.569746 -73.185340 -81.494648 -0.577072 -4.382998 -3.498305 4.766488 -0.870677 -14.442467 15.732320 12.674835 8.828583 -0.000002 0.000002 0.000003 -3.610951 -7.817589 -81.262661 0.005172 -4.388535 -67.459074 0.000001 0.000001 -0.000004 -5.483671 2.419553 -86.651031 -0.068361 -4.897283 -76.605503 0.000001 -0.000001 0.000004 -4.480819 3.914143 -90.412519 -1.097243 -0.675673 -62.310723 -0.000001 0.000000 -0.000003 -8.868643 8.263650 -85.753872 -0.047916 -0.066880 -74.105647 0.000000 -0.000000 -0.000001 -0.000001 -0.000001 -0.000001 -4.386046 -12.922337 7.198876 0.964064 2.511146 44.592639 -2.438608 70.583721 3.191905 -0.163868 25.783805 2.342659 24.918342 -21.323381 30.343047 9.041921 8.262090 -18.001805 -0.000001 -0.000001 0.000000 -0.070697 -3.035226 61.424205 0.006471 4.395155 66.609193 -0.000005 0.000001 -0.000001 -1.235392 -0.119479 68.274270 -0.077308 4.902844 84.501891 0.000000 -0.000000 -0.000001 0.883152 -4.613430 79.192949 -0.717762 1.136486 73.255787 0.000005 -0.000001 -0.000001 -3.944539 0.099985 86.764781 -0.029796 0.060133 54.415147 -0.000001 0.000000 -0.000001 0.000001 -0.000000 0.000001 -0.000000 -0.000001 0.000002 -0.000000 -0.000001 0.000001 -0.000000 -0.000001 0.000001 -0.000000 -0.000001 0.000001 -0.000000 -0.000001 0.000002 -0.000000 -0.000001 0.000001 -0.000000 -0.000001 0.000001 -0.000000 -0.000001 0.000001 -0.000000 -0.000001 0.000002 -0.000000 -0.000001 0.000001 -0.000000 0.000000 -0.000000 -0.000000 0.000000 -0.000000 -0.000000 0.000000 -0.000000 
-0.524914 60.874702 0.312368 13.254616 -52.739818 11.435238 -0.000001 -0.000002 0.000000 -62.980662 28.585779 40.653576 43.725126 -15.324426 4.590308 1.743279 0.480061 -10.136529 -0.000000 0.000000 0.000000 0.000004 -0.000000 0.000001 -32.430435 -20.340872 -37.061235 41.439478 -0.911941 -4.953136 -13.552533 -5.263608 30.314285 -0.000000 -0.000000 -0.000000 -0.000003 0.000001 -0.000002 7.489462 3.272854 -2.865258 0.854173 1.201871 0.698918 0.342520 1.145814 0.049813 -1.308383 8.164381 -0.192063 -4.522410 17.894192 -2.606009 -0.000000 0.000000 -0.000000 -0.000000 0.000000 -0.000000 -0.000000 0.000000 -0.000000 -0.000000 0.000000 -0.000000 -0.000001 0.000000 -0.000000 -0.000000 0.000000 -0.000000 -0.000001 0.000000 -0.000000 -0.000000 0.000000 -0.000000 -0.000000 0.000000 -0.000000 -1.303298 -6.769238 -9.295220 -19.624044 3.488090 -38.433485 -52.593816 -79.040725 -54.842318 -0.934849 -7.733577 -4.216537 4.766485 -0.870673 -14.442464 15.732326 12.674834 8.828578 0.000004 -0.000000 -0.000001 -3.610952 -7.817590 -81.262654 0.005173 -4.388534 -67.459074 -0.000000 0.000001 -0.000002 -5.483668 2.419552 -86.651017 -0.068361 -4.897284 -76.605503 -0.000000 -0.000000 0.000002 -4.480812 3.914144 -90.412519 -1.097244 -0.675674 -62.310723 -0.000004 0.000003 -0.000002 -8.868641 8.263646 -85.753872 -0.047916 -0.066880 -74.105647 0.000001 0.000001 -0.000001 0.000004 0.000001 0.000001 -2.003457 -4.720691 11.426371 -2.246402 3.009750 36.711775 6.238488 67.258280 -5.258058 1.711357 22.831449 -5.961758 24.918333 -21.323381 30.343040 9.041922 8.262091 -18.001805 0.000000 -0.000006 -0.000002 -0.070696 -3.035228 61.424205 0.006469 4.395159 66.609193 -0.000001 0.000001 0.000002 -1.235392 -0.119476 68.274277 -0.077306 4.902845 84.501891 0.000001 -0.000001 -0.000001 0.883157 -4.613433 79.192949 -0.717759 1.136486 73.255787 -0.000002 -0.000001 -0.000002 -3.944542 0.099988 86.764781 -0.029798 0.060129 54.415144 -0.000000 0.000001 -0.000001 0.000004 0.000001 -0.000002 -0.000000 0.000001 0.000000 0.000001 -0.000001 -0.000000 -0.000000 0.000001 0.000000 -0.000000 0.000001 0.000000 -0.000000 0.000001 0.000000 0.000001 -0.000001 0.000000 -0.000000 0.000001 0.000000 -0.000000 0.000001 0.000000 -0.000000 0.000001 0.000000 0.000001 -0.000001 0.000000 -0.000001 -0.000002 0.000000 -0.000001 -0.000002 0.000000 -0.000001 -0.000002 0.000000 
-0.471551 61.083527 0.245350 11.701971 -52.229541 10.964643 0.000000 -0.000002 0.000000 -61.184117 29.726937 39.181800 42.320043 -15.487888 4.911113 2.427350 0.427511 -10.265108 -0.000000 0.000000 0.000000 -0.000000 0.000001 0.000000 -31.643952 -20.474167 -38.101695 41.052592 -1.014578 -4.611548 -13.396668 -5.234074 30.173993 0.000000 0.000000 -0.000000 0.000001 -0.000001 0.000002 7.747758 3.535586 -2.777719 0.786150 1.186521 -0.100342 0.519892 1.163173 -0.438684 -0.950961 7.218787 0.775886 -5.102317 14.530049 -1.079618 0.000000 -0.000001 0.000001 0.000000 -0.000001 0.000001 0.000000 -0.000001 0.000001 0.000000 -0.000001 0.000000 0.000000 -0.000001 0.000000 0.000000 -0.000001 0.000000 0.000000 -0.000001 0.000000 0.000000 -0.000001 0.000001 0.000000 -0.000001 0.000001 -0.590263 -6.212641 -10.260909 -28.316062 7.991934 -35.772272 -34.572806 -80.332293 -39.174663 -1.217471 -10.316593 -5.546088 4.766479 -0.870674 -14.442464 15.732325 12.674832 8.828580 0.000001 -0.000003 0.000000 -3.610959 -7.817587 -81.262661 0.005172 -4.388533 -67.459074 0.000001 0.000002 -0.000002 -5.483675 2.419553 -86.651031 -0.068366 -4.897284 -76.605503 0.000001 -0.000002 0.000000 -4.480823 3.914146 -90.412512 -1.097243 -0.675671 -62.310723 -0.000001 -0.000002 -0.000000 -8.868646 8.263650 -85.753872 -0.047916 -0.066880 -74.105647 -0.000002 0.000001 -0.000001 -0.000001 0.000001 0.000002 -0.656615 3.733956 14.853308 -7.563520 6.100368 30.314801 10.991872 64.230737 -9.616321 2.363061 19.299101 -12.138975 24.918335 -21.323379 30.343040 9.041924 8.262095 -18.001805 -0.000002 -0.000003 -0.000002 -0.070696 -3.035225 61.424205 0.006467 4.395161 66.609186 0.000001 -0.000001 0.000002 -1.235390 -0.119479 68.274270 -0.077309 4.902841 84.501891 0.000001 0.000002 -0.000001 0.883152 -4.613438 79.192949 -0.717758 1.136485 73.255780 0.000003 -0.000006 -0.000003 -3.944534 0.099986 86.764774 -0.029800 0.060127 54.415147 0.000005 0.000002 0.000001 -0.000003 -0.000000 -0.000002 -0.000000 -0.000000 -0.000000 -0.000000 0.000002 -0.000001 -0.000000 -0.000000 -0.000000 -0.000000 -0.000000 -0.000000 -0.000000 -0.000000 -0.000000 -0.000000 0.000002 -0.000001 -0.000000 -0.000000 -0.000000 -0.000000 -0.000000 -0.000000 -0.000000 -0.000000 -0.000000 -0.000000 0.000002 -0.000001 0.000000 -0.000002 0.000000 0.000000 -0.000002 0.000000 0.000000 -0.000002 0.000000 
